# xmcd
#
# Track frame offsets: 
#        150
#        11533
#        26568
#        36220
#        47065
#        59862
#        74013
#        86359
#        97187
#        111089
#        125149
#        138316
#        149299
#        159200
#        169707
#        177803
#        187334
#        201245
#        214040
#        225334
#        237756
#        251219
#
# Disc length: 3480 seconds
#
# Revision: 0
# Processed by: cddbd v1.5.2PL0 Copyright (c) Steve Scherf et al.
# Submitted via: ExactAudioCopy v0.99pb5
#
DISCID=430d9616
DTITLE=Sister Rosetta Tharpe - Complete Sister Rosetta Tharpe - Vol 5
DYEAR=2008
DGENRE=Gospel
TTITLE0=Stand The Storm
TTITLE1=Sing And Shout
TTITLE2=Shadrack
TTITLE3=Nobody's Fault But Mine
TTITLE4=I'm So Glad
TTITLE5=God Spoke To Me
TTITLE6=Calvary
TTITLE7=I Tell It Wherever I Go
TTITLE8=This Old Soul Of Mine
TTITLE9=Don't Leve Me Here To Cry
TTITLE10=What Have I Done?
TTITLE11=Go Ahead
TTITLE12=He Is Everything To Me
TTITLE13=Everytime I Feel The Spirit
TTITLE14=Look Away In The Heavenly Land
TTITLE15=When Was Jesus Born
TTITLE16=In Bethlehem
TTITLE17=This Ole House
TTITLE18=Don't You Weep, O Mary Don't You Weep
TTITLE19=I've Done Wrong
TTITLE20=I Can Hear The Angels
TTITLE21=Father Prepare Me
EXTD=
EXTT0=
EXTT1=
EXTT2=
EXTT3=
EXTT4=
EXTT5=
EXTT6=
EXTT7=
EXTT8=
EXTT9=
EXTT10=
EXTT11=
EXTT12=
EXTT13=
EXTT14=
EXTT15=
EXTT16=
EXTT17=
EXTT18=
EXTT19=
EXTT20=
EXTT21=
PLAYORDER=
